<?xml version="1.0" encoding="UTF-8"?>
<!DOCTYPE svg PUBLIC "-//W3C//DTD SVG 1.1//EN" "http://www.w3.org/Graphics/SVG/1.1/DTD/svg11.dtd">
<!-- Creator: CorelDRAW X7 -->
<svg xmlns="http://www.w3.org/2000/svg" xml:space="preserve" width="1290px" height="720px" version="1.1" style="shape-rendering:geometricPrecision; text-rendering:geometricPrecision; image-rendering:optimizeQuality; fill-rule:evenodd; clip-rule:evenodd"
viewBox="0 0 1290 720"
 xmlns:xlink="http://www.w3.org/1999/xlink">
 <defs>
  <style type="text/css">
   <![CDATA[
    .str0 {stroke:white;stroke-width:33.3331;stroke-linecap:round;stroke-linejoin:round}
    .fil4 {fill:none}
    .fil2 {fill:white}
    .fil0 {fill:url(#id0)}
    .fil1 {fill:url(#id1)}
    .fil3 {fill:url(#id2);fill-rule:nonzero}
   ]]>
  </style>
  <linearGradient id="id0" gradientUnits="userSpaceOnUse" x1="740.477" y1="734.027" x2="728.12" y2="-12.9213">
   <stop offset="0" style="stop-opacity:1; stop-color:#4A0505"/>
   <stop offset="1" style="stop-opacity:1; stop-color:#CD0202"/>
  </linearGradient>
  <linearGradient id="id1" gradientUnits="userSpaceOnUse" x1="373.198" y1="705.978" x2="327.494" y2="14.0185">
   <stop offset="0" style="stop-opacity:1; stop-color:#440505"/>
   <stop offset="0.541176" style="stop-opacity:1; stop-color:#910303"/>
   <stop offset="1" style="stop-opacity:1; stop-color:#DF0000"/>
  </linearGradient>
  <linearGradient id="id2" gradientUnits="userSpaceOnUse" x1="255.24" y1="449.435" x2="431.425" y2="280.906">
   <stop offset="0" style="stop-opacity:1; stop-color:#4B0505"/>
   <stop offset="0.611765" style="stop-opacity:1; stop-color:#970303"/>
   <stop offset="1" style="stop-opacity:1; stop-color:#E40000"/>
  </linearGradient>
 </defs>
 <g id="Layer_x0020_1">
  <metadata id="CorelCorpID_0Corel-Layer"/>
  <g id="_1758917982272">
   <rect class="fil0" x="182" y="31" width="1104" height="659" rx="36" ry="92"/>
   <path class="fil1" d="M350 13c192,0 347,155 347,347 0,63 -17,123 -47,174 -2,4 -2,6 0,10 18,54 29,98 36,121 8,30 11,26 -27,19 -24,-4 -64,-12 -113,-27 -3,-1 -11,-4 -13,-2 -53,33 -116,52 -183,52 -191,0 -346,-155 -346,-347 0,-192 155,-347 346,-347z"/>
   <path class="fil2" d="M566 370c-5,120 -107,212 -226,206 -40,-2 -76,-14 -107,-34 -2,-2 -4,-2 -6,-1 -34,10 -62,15 -77,19 -19,4 -16,6 -11,-18 4,-14 10,-39 20,-69 1,-2 3,-7 2,-8 -19,-34 -29,-74 -27,-115 6,-120 108,-212 227,-206 119,6 211,107 205,226z"/>
   <path class="fil3" d="M228 408l75 -4c1,12 5,21 10,27 8,10 19,16 34,16 11,0 20,-3 26,-8 6,-6 9,-12 9,-19 0,-6 -3,-12 -8,-17 -6,-6 -19,-10 -40,-15 -35,-8 -59,-18 -74,-31 -15,-13 -22,-29 -22,-49 0,-13 3,-25 11,-37 8,-12 19,-21 34,-27 15,-7 36,-10 63,-10 32,0 57,6 74,18 17,12 27,31 30,58l-73 4c-2,-12 -7,-20 -13,-25 -6,-5 -15,-8 -26,-8 -9,0 -16,2 -21,6 -4,4 -7,8 -7,14 0,4 2,8 6,11 4,3 12,6 26,9 35,8 59,15 74,23 15,7 26,17 32,28 7,11 11,24 11,38 0,16 -5,31 -14,45 -9,13 -22,24 -38,31 -16,7 -36,11 -61,11 -43,0 -73,-9 -90,-25 -16,-17 -26,-38 -28,-64z"/>
   <line class="fil4 str0" x1="796" y1="115" x2="796" y2= "205" />
   <line class="fil4 str0" x1="976" y1="115" x2="976" y2= "205" />
   <path class="fil4 str0" d="M728 160l316 0c25,0 45,20 45,45l0 316c0,25 -20,45 -45,45l-316 0c-25,0 -45,-20 -45,-45l0 -316c0,-25 20,-45 45,-45z"/>
   <line class="fil4 str0" x1="683" y1="295" x2="1089" y2= "295" />
   <polyline class="fil4 str0" points="818,431 864,476 954,386 "/>
  </g>
 </g>
</svg>
